<svg version="1.1" xmlns="http://www.w3.org/2000/svg" xmlns:xlink="http://www.w3.org/1999/xlink" width="55.40476" height="50" viewBox="0,0,55.40476,50"><g transform="translate(-233.29762,-152.85)"><g data-paper-data="{&quot;isPaintingLayer&quot;:true}" fill-rule="nonzero" stroke-linecap="butt" stroke-linejoin="miter" stroke-miterlimit="10" stroke-dasharray="" stroke-dashoffset="0" style="mix-blend-mode: normal"><path d="M234.54762,201.6v-47.5h52.90476v47.5z" fill="#8effef" stroke="#000000" stroke-width="2.5"/><path d="M274.44848,181.80881l-0.09477,0.22673c1.06518,-0.0644 5.23524,-0.02603 6.00901,-1.3689c0.67285,-1.16774 -0.09688,-2.6937 -0.14087,-4.04069c-0.00655,-0.20074 -0.13587,-3.31483 -0.49011,-3.78042c-1.23757,-1.62659 -5.07055,-2.11413 -6.88725,-2.46116c-4.30779,-0.82289 -8.54742,-1.94399 -12.81271,-2.97103c-4.11602,0.02591 -6.80865,0.86427 -10.64541,2.26175c-1.37579,0.50111 -3.61489,0.7467 -4.72247,2.02694c-1.41398,1.63442 -1.10499,5.42849 -1.04486,7.35861c0.0448,1.43809 -0.2703,6.01717 1.21735,7.25167c0.29358,0.24362 4.63563,1.77366 4.80807,1.82496c4.1428,1.23244 8.47077,0.96983 12.77307,1.12774c1.28151,-1.30306 2.98871,-0.27874 2.98871,-0.27874c1.88865,1.13414 3.64557,2.48253 5.55832,3.57553c0.42323,0.24184 0.8968,0.39853 1.3632,0.56438c-0.74532,-1.67118 -1.26682,-3.67502 -1.77946,-5.20562l-0.31966,-2.98296c0,0 -0.15459,-1.85509 1.4038,-2.49713c1.06904,-1.33048 2.81604,-0.63168 2.81604,-0.63168zM245.16993,191.84244c-1.28728,-0.56386 -2.74722,-0.92703 -3.76632,-1.89475c-2.79552,-2.65457 -2.68567,-7.27161 -2.78265,-10.74833c-0.091,-3.26229 -0.13563,-7.95727 2.15514,-10.64139c2.26358,-2.65227 3.93264,-2.48663 6.87753,-3.57306c4.58101,-1.69003 8.03322,-2.56197 12.95459,-2.53825c5.35556,1.23524 11.25284,2.00143 16.46228,3.69864c1.41951,0.46247 5.62751,2.31446 6.63777,3.66917c1.74774,2.34366 1.73179,6.8383 1.50989,9.61146c-0.10119,1.26464 0.13751,2.69534 -0.54087,3.76742c-1.90004,3.00274 -5.93187,3.52004 -9.15618,3.76961c1.37156,3.45988 5.28491,10.11563 0.9359,12.79351c-1.4346,0.88334 -3.27259,-0.82424 -4.8587,-1.39224c-2.51789,-0.90168 -4.72993,-2.47783 -6.96639,-3.95059c-6.681,-0.6675 -13.12086,0.20636 -19.46199,-2.57121z" fill="#ffffff" stroke="none" stroke-width="0.5"/><path d="M271.68119,182.45158c-1.55839,0.64204 -1.40918,2.51092 -1.40918,2.51092l0.31336,2.99162c0.51264,1.5306 1.0282,3.54001 1.77353,5.21119c-0.4664,-0.16585 -0.94185,-0.32111 -1.36508,-0.56296c-1.91275,-1.093 -3.68117,-2.4352 -5.56981,-3.56934c0,0 -1.72317,-1.02109 -3.00468,0.28197c-4.3023,-0.15791 -8.67433,0.08145 -12.81713,-1.15099c-0.17244,-0.0513 -4.51942,-1.59153 -4.813,-1.83515c-1.48765,-1.2345 -1.17526,-5.83338 -1.22005,-7.27146c-0.06013,-1.93012 -0.3641,-5.74298 1.04988,-7.3774c1.10758,-1.28025 3.35315,-1.5358 4.72894,-2.03691c3.83676,-1.39748 6.55988,-2.2532 10.6759,-2.2791c4.26529,1.02704 8.54964,2.16367 12.85743,2.98656c1.81669,0.34703 5.65895,0.84901 6.89653,2.4756c0.35424,0.46559 0.48649,3.58923 0.49304,3.78997c0.04398,1.347 0.81469,2.8839 0.14183,4.05163c-0.77377,1.34287 -4.94432,1.31054 -6.0095,1.37494l-0.00433,-0.24004c0,0 -1.64863,-0.68153 -2.71767,0.64895z" data-paper-data="{&quot;noHover&quot;:false,&quot;origItem&quot;:[&quot;Path&quot;,{&quot;applyMatrix&quot;:true,&quot;segments&quot;:[[274.44848,181.80881],[[274.3537,182.03554],[0,0],[1.06518,-0.0644]],[[280.36271,180.66663],[-0.77377,1.34287],[0.67285,-1.16774]],[[280.22184,176.62594],[0.04398,1.347],[-0.00655,-0.20074]],[[279.73173,172.84552],[0.35424,0.46559],[-1.23757,-1.62659]],[[272.84449,170.38436],[1.81669,0.34703],[-4.30779,-0.82289]],[[260.03178,167.41333],[4.26529,1.02704],[-4.11602,0.02591]],[[249.38637,169.67508],[3.83676,-1.39748],[-1.37579,0.50111]],[[244.6639,171.70202],[1.10758,-1.28025],[-1.41398,1.63442]],[[243.61904,179.06063],[-0.06013,-1.93012],[0.0448,1.43809]],[[244.83639,186.31231],[-1.48765,-1.2345],[0.29358,0.24362]],[[249.64446,188.13727],[-0.17244,-0.0513],[4.1428,1.23244]],[[262.41753,189.265],[-4.3023,-0.15791],[1.28151,-1.30306]],[[265.40624,188.98627],[0,0],[1.88865,1.13414]],[[270.96456,192.5618],[-1.91275,-1.093],[0.42323,0.24184]],[[272.32775,193.12619],[-0.4664,-0.16585],[-0.74532,-1.67118]],[[270.54829,187.92057],[0.51264,1.5306],[0,0]],[270.22864,184.93761],[[271.63243,182.44048],[-1.55839,0.64204],[1.06904,-1.33048]]],&quot;closed&quot;:true}]}" fill="#ccfff8" stroke="none" stroke-width="0.5"/><path d="M253.65018,171.66255c1.7432,0.07565 4.39945,0.63938 6.21135,0.5446c0.74029,-0.03872 1.74268,-1.15843 2.82107,-1.15843c1.50453,0 7.54265,1.30949 8.46061,2.83942c4.16828,6.94714 -5.60318,2.86095 -7.58557,2.22109c-0.74817,-0.24149 -3.55283,1.20935 -4.75346,1.07862c-3.49765,-0.38084 -6.8309,-0.36207 -10.26672,-0.27012c-0.04551,0.00247 -0.09135,0.00372 -0.13747,0.00372c-1.38071,0 -2.5,-1.11929 -2.5,-2.5c0,-1.06952 0.67161,-1.98218 1.6161,-2.33925c1.61137,-0.90557 4.04266,-0.51039 6.13409,-0.41963z" fill="#000000" stroke="none" stroke-width="0.5"/><path d="M245.47143,183.85c0.2941,-0.99562 0.96256,-1.79674 1.87184,-2.42042c3.74935,-2.57171 11.59326,-2.12644 14.16905,0.14006c0.33296,0.29298 1.62035,-1.02164 1.90381,-1.25882c0.80226,-0.67128 2.30973,-0.34395 3.20302,0.02462c1.5851,0.65401 3.9739,1.5758 2.73121,4.06117c-0.37558,0.75116 -1.29959,1.13197 -2.09631,1.39754c-0.62809,0.20936 -1.3159,-0.8459 -1.90839,-0.55046c-1.00462,0.50095 -2.66387,1.51525 -3.776,1.8206c-1.76632,0.48496 -2.28834,-1.85351 -3.49801,-1.85714c-2.61865,-0.00787 -4.95677,0.06154 -7.49706,0.24207c-0.77062,0.05477 -2.09277,1.34978 -2.77498,0.89497z" fill="#000000" stroke="none" stroke-width="0.5"/></g></g></svg>